<!DOCTYPE svg PUBLIC "-//W3C//DTD SVG 1.1//EN" "http://www.w3.org/Graphics/SVG/1.1/DTD/svg11.dtd">
<!-- Uploaded to: SVG Repo, www.svgrepo.com, Transformed by: SVG Repo Mixer Tools -->
<svg width="220px" height="220px" viewBox="0 0 24 24" data-name="025_SCIENCE" id="_025_SCIENCE" xmlns="http://www.w3.org/2000/svg" fill="#000000">
<g id="SVGRepo_bgCarrier" stroke-width="0"/>
<g id="SVGRepo_tracerCarrier" stroke-linecap="round" stroke-linejoin="round"/>
<g id="SVGRepo_iconCarrier">
<defs>
<style>.cls-1{fill: rgb(0, 109, 122);}</style>
</defs>
<path class="cls-1" d="M12,22a1,1,0,0,1-.71-.29,1,1,0,0,1,0-1.42,5.36,5.36,0,0,0,0-7.58,7.38,7.38,0,0,1,0-10.42,1,1,0,1,1,1.42,1.42,5.36,5.36,0,0,0,0,7.58,7.38,7.38,0,0,1,0,10.42A1,1,0,0,1,12,22Z"/>
<path class="cls-1" d="M19.79,17.5a1,1,0,0,1-1-.74A5.35,5.35,0,0,0,12.26,13a7.37,7.37,0,0,1-9-5.21,1,1,0,1,1,1.93-.52A5.35,5.35,0,0,0,11.74,11a7.37,7.37,0,0,1,9,5.21,1,1,0,0,1-.71,1.23A1.09,1.09,0,0,1,19.79,17.5Z"/>
<path class="cls-1" d="M5.85,17.72A7.29,7.29,0,0,1,4,17.47a1,1,0,0,1,.51-1.94A5.36,5.36,0,0,0,11,11.74a7.4,7.4,0,0,1,9-5.21,1,1,0,0,1-.51,1.94A5.36,5.36,0,0,0,13,12.26,7.4,7.4,0,0,1,5.85,17.72Z"/>
</g>
</svg>